HIERARCHY
ROOT Hips
{
     OFFSET 1.88212 96.90440 -13.34250
     CHANNELS 6 Xposition Yposition Zposition Zrotation Xrotation Yrotation
     JOINT Spine
     {
          OFFSET 0.00000 11.89050 0.00000
          CHANNELS 3 Zrotation Xrotation Yrotation
          JOINT Spine1
          {
               OFFSET -0.00000 25.65740 0.12766
               CHANNELS 3 Zrotation Xrotation Yrotation
               JOINT HEad
               {
                    OFFSET 0.00000 8.73416 0.01134
                    CHANNELS 3 Zrotation Xrotation Yrotation
                    End Site
                    {
                         OFFSET -0.29000 12.77420 2.51395
                    }
               }
               JOINT LeftShoulder1
               {
                    OFFSET 8.99000 -0.36225 -0.22000
                    CHANNELS 3 Zrotation Xrotation Yrotation
                    JOINT LeftArm
                    {
                         OFFSET 10.28270 -0.00338 0.32212
                         CHANNELS 3 Zrotation Xrotation Yrotation
                         JOINT LeftForeArm
                         {
                              OFFSET 32.76690 0.09914 -1.42434
                              CHANNELS 3 Zrotation Xrotation Yrotation
                              JOINT LeftHand
                              {
                                   OFFSET 27.56430 0.08536 1.02216
                                   CHANNELS 3 Zrotation Xrotation Yrotation
                                   End Site
                                   {
                                        OFFSET 16.74430 -0.60000 1.50291
                                   }
                              }
                         }
                    }
               }
               JOINT RightShoulder
               {
                    OFFSET -8.99000 -0.36225 -0.22000
                    CHANNELS 3 Zrotation Xrotation Yrotation
                    JOINT RightArm
                    {
                         OFFSET -10.28270 -0.00338 0.32212
                         CHANNELS 3 Zrotation Xrotation Yrotation
                         JOINT RightForeArm
                         {
                              OFFSET -32.89710 0.09914 -1.42434
                              CHANNELS 3 Zrotation Xrotation Yrotation
                              JOINT RightHand
                              {
                                   OFFSET -27.49210 0.08536 1.02216
                                   CHANNELS 3 Zrotation Xrotation Yrotation
                                   End Site
                                   {
                                        OFFSET -16.63120 -0.60000 1.50291
                                   }
                              }
                         }
                    }
               }
          }
     }
     JOINT LeftUpLeg
     {
          OFFSET 8.94580 -8.66707 0.10165
          CHANNELS 3 Zrotation Xrotation Yrotation
          JOINT LeftLeg
          {
               OFFSET 0.00000 -44.42270 1.37270
               CHANNELS 3 Zrotation Xrotation Yrotation
               JOINT LeftFoot
               {
                    OFFSET -0.25355 -42.09240 -1.46059
                    CHANNELS 3 Zrotation Xrotation Yrotation
                    JOINT LeftToes
                    {
                         OFFSET -0.04000 -4.41509 8.49910
                         CHANNELS 3 Zrotation Xrotation Yrotation
                         End Site
                         {
                              OFFSET 0.08000 -0.04745 9.77979
                         }
                    }
               }
          }
     }
     JOINT RightUpLeg
     {
          OFFSET -8.94580 -8.66707 0.10165
          CHANNELS 3 Zrotation Xrotation Yrotation
          JOINT RightLeg
          {
               OFFSET 0.00000 -44.42270 1.37270
               CHANNELS 3 Zrotation Xrotation Yrotation
               JOINT RightFoot
               {
                    OFFSET 0.25355 -42.09240 -1.46059
                    CHANNELS 3 Zrotation Xrotation Yrotation
                    JOINT RightToes
                    {
                         OFFSET 0.04000 -4.41509 8.49910
                         CHANNELS 3 Zrotation Xrotation Yrotation
                         End Site
                         {
                              OFFSET -0.08000 -0.13745 9.77979
                         }
                    }
               }
          }
     }
}
MOTION
Frames: 20
Frame Time: 0.01667
10.76304 94.39616 -21.33310 12.49203 -0.36226 96.87227 -13.42426 12.61474 13.97033 0.01666 0.00070 -0.10866 -0.89600 -3.55297 -3.47216 0.55550 2.80901 -20.18675 -71.06502 -28.46736 4.66728 -100.44038 -18.87536 -120.61362 -54.10411 9.20395 7.75223 15.94094 -3.73625 -26.90284 90.22482 13.33049 70.42864 29.05680 34.51731 92.11148 -3.66873 24.77017 13.88952 35.45477 -2.95794 -13.85990 -37.75956 21.68772 81.54942 -5.48974 -0.11313 0.01923 5.49782 -5.35773 -54.07337 -23.97009 11.49674 24.84741 27.40986 7.36746 -29.73557 -15.04971 0.17817 0.03452 -0.96858 -8.96602 -13.84571 
10.92511 93.93577 -22.61890 12.80532 -2.87203 91.62788 -10.68587 12.65863 14.57477 0.02059 -0.00542 -0.09545 1.48883 -4.41170 -1.98779 0.36655 1.78457 -17.00182 -65.65231 -31.27369 0.09135 -98.90179 -17.78792 -113.52186 -51.19356 7.45390 -3.88069 15.47342 -3.64016 -23.72199 92.26917 12.41605 69.17798 24.86749 34.12414 94.32554 8.26741 13.05352 12.58071 35.67542 0.60837 -14.35416 -35.38444 21.07894 78.11887 -8.41981 -0.18731 0.00679 6.19622 -4.68838 -47.61560 -23.17340 7.54227 27.05511 31.47249 10.54883 -38.07878 -12.78351 0.24612 0.08017 -3.85247 -17.88461 -1.31199 
11.02044 93.41711 -24.11614 12.98508 -5.07415 87.08517 -7.71038 12.93042 13.16624 0.01568 -0.00533 -0.08098 3.35694 -4.63305 1.05989 -0.38138 1.18855 -12.46817 -60.06652 -35.04433 -4.79561 -98.02808 -15.97332 -106.67979 -53.59415 14.74394 0.16091 14.56939 -2.94302 -19.28243 93.62119 11.91936 68.12952 22.50407 34.35994 95.68954 4.30914 14.86058 13.03062 34.95093 3.65630 -16.12157 -32.68410 20.84588 74.67911 -11.96006 -0.25904 -0.01615 7.04735 -4.75031 -40.26394 -22.58140 3.30345 27.60539 36.95512 13.74934 -46.86180 -11.69174 0.17342 0.06778 -3.64174 -19.76971 5.70805 
11.02617 92.86849 -25.70959 13.12282 -6.96770 83.20016 -4.71503 13.23800 10.03596 0.00483 -0.00321 -0.06817 4.83080 -4.10826 5.35593 -2.64267 1.09991 -6.54970 -54.41974 -38.85247 -9.40484 -98.13909 -14.39756 -100.80465 -53.16756 6.56073 -9.07166 13.21223 -1.72409 -13.80060 94.63328 11.56106 67.38791 21.42890 34.83776 96.36426 10.06866 9.50057 12.99345 33.92850 6.28813 -17.90610 -30.70282 20.42854 72.63330 -14.78500 -0.17842 -0.04693 8.11233 -6.03973 -34.29294 -22.30754 -0.97984 26.59053 43.64407 16.36549 -54.89616 -12.17561 0.05368 0.04680 -2.96196 -25.27029 15.38197 
10.93024 92.31642 -27.33186 13.28701 -8.55374 79.95566 -1.96878 13.36846 5.45817 -0.01166 0.00202 -0.05734 5.99803 -2.79725 10.61246 -1.76350 0.67469 -10.49464 -44.39833 -50.09502 -3.30760 -99.35761 -11.18472 -97.23637 -51.99257 20.93210 -11.79821 11.63720 -0.15234 -7.43653 95.32317 11.12476 66.99654 21.37606 35.17242 96.33852 7.32421 11.40659 12.93780 32.81680 8.50312 -19.68407 -29.33637 19.90325 71.72744 -17.02803 -0.11051 -0.04114 9.50069 -7.92352 -29.72751 -22.40201 -5.04245 24.07943 49.02243 19.50914 -59.18630 -17.13299 -0.24212 -0.04005 2.14327 -26.86990 20.64795 
10.74860 91.79923 -28.95539 13.52103 -9.81004 77.31856 0.03126 13.51013 0.05432 -0.03258 0.00711 -0.05301 7.07097 -1.12009 16.35420 -3.10728 0.65920 -2.92656 -38.41001 -51.89706 -7.59955 -101.42163 -7.33736 -96.85822 -54.61401 7.47952 -10.60878 10.22647 1.27567 -0.70539 95.74154 10.71663 66.82256 21.94771 35.41011 95.88546 10.59806 8.92510 12.93564 31.73565 10.32102 -21.43750 -28.50093 19.25168 71.74831 -18.76372 -0.06465 -0.02996 11.17555 -9.97112 -26.41798 -22.91460 -8.61355 20.17708 53.40770 23.47674 -60.82258 -19.17700 -0.06830 0.00333 3.94478 -28.96060 24.25097 
10.51510 91.36344 -30.57217 13.84262 -10.72101 75.25278 1.45802 13.59037 -4.82145 -0.01876 0.00781 0.05032 7.71935 0.66772 21.14721 -4.31387 0.50644 3.17727 -32.55315 -53.25773 -12.76801 -103.42734 -3.70255 -99.61836 -31.79092 17.74604 -12.45322 8.76179 2.35210 5.01074 95.99431 10.29399 66.85009 22.89874 35.46076 95.13694 9.03290 10.42957 12.96650 30.79866 11.85328 -23.16174 -28.30760 17.43853 74.51012 -19.04262 -0.00201 -0.02175 12.49288 -11.63670 -26.23650 -23.55157 -11.38324 16.21744 56.75574 27.32399 -61.13069 -22.09214 -0.03977 0.00481 6.15292 -29.77122 25.80681 
10.26691 90.98422 -32.17588 14.24499 -11.30675 73.70842 2.33872 13.61299 -9.15029 -0.01820 0.00781 0.05482 8.04096 2.40465 25.28236 -5.54462 0.32349 8.23949 -27.42894 -54.29128 -19.41302 -104.05634 -0.93784 -105.00302 -46.89721 11.00671 -10.97652 7.45431 3.22056 10.01349 96.03716 9.85665 67.05002 23.97223 35.39980 94.29517 10.95742 9.21009 13.01060 30.66622 13.37488 -23.95635 -28.81643 14.94574 78.21667 -18.29847 -0.01037 -0.02118 13.17795 -13.08565 -28.69465 -24.30369 -13.39451 12.31896 59.19089 31.01688 -60.45394 -24.05847 -0.00348 0.01577 7.23308 -30.48878 26.39895 
10.04223 90.67557 -33.72927 14.70936 -11.60191 72.62601 2.66710 13.30117 -12.55179 -0.01777 0.01207 0.05031 8.11503 4.20012 28.38378 -6.74903 0.45133 12.13107 -23.84103 -55.20131 -27.88672 -103.77319 -4.12207 -109.66061 -22.55866 15.06951 -12.68078 6.33655 4.20586 13.96483 95.91057 9.35666 67.39420 25.05058 35.20253 93.45094 10.06021 10.14420 13.15804 31.11477 14.87394 -23.85975 -29.94377 12.08765 82.51049 -16.81973 -0.05285 -0.02445 13.08560 -14.65172 -33.34573 -25.14141 -14.76728 8.58219 62.19203 35.23487 -58.26527 -29.32279 0.14591 0.09324 10.37116 -31.74309 23.86926 
9.85743 90.43540 -35.20553 15.21066 -11.65687 71.93195 2.52635 12.80962 -15.00994 -0.01631 0.01489 0.04507 6.89960 5.30019 31.50627 -8.08927 0.74794 15.24467 -23.36898 -56.30872 -38.93926 -102.64358 -10.57985 -112.63018 -30.64424 11.81807 -8.34609 5.08387 5.48533 16.99020 95.85062 8.85536 68.14148 26.01909 34.93619 92.66302 11.28320 9.43729 13.19805 31.96745 16.37047 -22.90253 -31.65445 9.08592 87.13284 -14.81286 -0.10736 -0.02099 12.13635 -16.56025 -39.83219 -25.99380 -15.57237 5.10377 62.10618 38.54293 -52.99631 -28.28333 0.00499 -0.02516 7.50150 -30.28305 20.52003 
9.71695 90.24519 -36.58723 15.72620 -11.52817 71.55420 2.02291 12.25934 -16.57387 -0.01469 0.01829 0.03934 4.75575 5.63796 34.77154 -9.05025 1.25287 17.27491 -23.86972 -57.13937 -45.95493 -101.60113 -15.19401 -114.05162 -18.45673 14.61160 -9.77083 4.19601 6.65195 19.11872 95.57247 8.36514 68.74367 26.83070 34.62523 91.97270 10.83014 9.95265 13.31527 33.02045 17.81292 -21.11428 -33.71555 7.06980 89.73887 -13.34442 -0.07792 0.00945 11.06852 -18.90685 -45.53231 -26.82474 -15.88564 1.95037 61.43401 41.52643 -48.44813 -29.70550 0.05526 0.01154 7.80313 -29.42658 18.00529 
9.61972 90.09883 -37.85703 16.25401 -11.26191 71.44672 0.68334 12.16163 -16.06438 -0.06631 0.03844 0.12330 2.79330 4.93303 37.00361 -8.92893 1.88515 17.16132 -25.34923 -57.77350 -50.30841 -100.37749 -18.08848 -114.07323 -24.21094 12.38833 -7.06366 4.54031 7.35521 19.10938 95.11639 8.01274 69.12994 27.44306 34.35043 91.44547 11.56030 9.53329 13.33032 33.80302 19.06482 -19.55515 -35.92617 5.52944 91.64259 -12.27112 -0.04910 0.01430 10.01623 -21.50039 -50.44478 -27.50146 -15.26289 0.25445 60.10323 42.84907 -44.41490 -29.40868 0.02437 -0.00771 6.93824 -28.67322 16.19043 
9.55199 90.00585 -38.99821 16.79713 -10.88856 71.57634 -1.19255 12.45473 -13.79455 -0.05615 0.03958 0.11088 0.77628 3.50291 38.55735 -7.78574 2.66356 15.45592 -32.48869 -59.42654 -53.78965 -95.88134 -21.63894 -108.01279 -4.05090 20.75177 -10.84807 5.75199 7.64960 17.37871 94.48891 7.83514 69.25482 27.83400 34.15860 91.13000 11.23560 9.83846 13.39021 34.37846 20.09541 -18.21524 -38.16265 4.40214 92.92606 -11.52074 -0.02874 0.01329 9.06203 -24.18769 -54.61990 -28.07070 -13.98475 -0.08949 58.51585 42.62438 -41.07482 -29.56177 0.02524 -0.00078 6.87693 -28.02991 14.82819 
9.48858 89.97746 -39.99876 17.35492 -10.42736 71.91911 -3.42560 13.04741 -10.05414 -0.04509 0.04050 0.09312 -0.46509 1.98140 38.16476 -5.78899 3.40476 12.38354 -42.03224 -60.96779 -55.97996 -89.29736 -23.90254 -99.30724 -25.55622 9.31489 -14.80473 7.70882 7.45108 14.10231 93.69660 7.87168 69.06122 27.95896 34.13168 91.08548 11.53894 9.61031 13.40546 34.80132 20.88005 -17.08846 -40.28547 3.65429 93.68776 -11.03693 -0.01470 0.01035 8.26249 -26.79309 -58.09101 -28.59275 -12.26721 0.76454 57.02126 41.00475 -38.64797 -29.24299 0.02045 -0.00312 6.57788 -27.35003 13.91273 
9.40466 90.02525 -40.85319 17.91675 -9.89430 72.45541 -5.92705 13.86665 -5.10166 -0.03993 0.04273 0.07548 -1.17205 0.48119 36.09949 -3.14370 3.87038 8.03313 -51.47242 -61.92622 -56.39702 -83.85429 -20.38049 -93.13939 0.47724 18.62440 -11.37036 10.14878 6.62148 9.57786 92.83456 8.08322 68.56669 27.88925 34.27113 91.31778 11.21224 9.81332 13.44559 35.10479 21.39838 -16.15932 -42.16641 3.24670 94.02949 -10.76174 -0.00566 0.00723 7.65808 -29.15536 -60.90089 -29.11577 -10.28462 2.67235 55.85023 38.17978 -37.27769 -29.03983 0.02050 -0.00023 6.54282 -26.60194 13.39633 
9.29666 90.15234 -41.56990 18.45468 -9.31093 73.16579 -8.05668 14.35393 -0.45765 0.00707 0.00730 -0.03028 -2.10484 -0.47272 33.87128 -0.92391 4.35153 3.99238 -59.07684 -62.19493 -54.39961 -80.28436 -13.72344 -90.07110 -12.81713 7.42816 -9.70458 11.67534 6.14517 5.36254 92.31976 8.33525 68.21484 27.71670 34.53108 91.74823 11.27997 9.70704 13.46309 35.30083 21.63959 -15.39470 -43.70205 3.12911 94.03984 -10.64300 -0.00029 0.00484 7.27285 -31.17012 -63.10807 -29.66650 -8.18733 5.50144 55.08397 34.34499 -36.96851 -28.75205 0.02048 0.00134 6.51927 -25.75291 13.24355 
9.16670 90.34612 -42.16819 18.93470 -8.69621 74.02557 -9.89827 14.75038 3.44135 0.00919 0.00563 -0.03420 -2.97506 -1.18036 31.78211 1.11462 4.64028 0.49190 -64.18661 -62.09591 -49.89452 -76.39001 -10.35977 -86.55514 8.92545 22.49550 -13.84978 12.87188 5.73195 1.72802 91.88366 8.56034 67.84760 27.50867 34.85469 92.30842 11.04927 9.86457 13.45262 35.38858 21.60421 -14.75054 -44.84119 3.25241 93.78874 -10.64450 0.00258 0.00331 7.10881 -32.80467 -64.78938 -30.23721 -6.33863 8.04021 54.42804 30.74851 -37.07589 -28.51820 0.02061 0.00419 6.62056 -24.83718 13.36738 
9.01645 90.57892 -42.66552 19.32716 -8.08138 75.02063 -11.46711 15.09531 6.65306 0.00728 0.00528 -0.03191 -3.72951 -1.67933 29.90892 2.30529 4.85801 -2.23651 -67.30866 -61.74643 -47.62304 -73.94759 -7.71807 -84.79030 -9.40901 15.23109 -13.33576 13.70737 5.44246 -1.25606 91.60472 8.73154 67.54022 27.29822 35.18687 92.89957 11.10763 9.86288 13.40632 35.36868 21.30651 -14.19305 -45.56125 3.57374 93.32709 -10.74517 0.00391 0.00250 7.14968 -34.06979 -66.02882 -30.78436 -4.73010 10.28226 53.85802 27.44742 -37.42496 -28.29342 0.02047 0.00662 6.77333 -23.92182 13.68621 
8.83931 90.81231 -43.07447 19.68736 -7.47003 76.06041 -12.93503 15.40339 9.66812 0.00204 0.00013 -0.01105 -4.48205 -2.03635 28.07516 3.43864 5.04094 -4.76096 -70.05618 -61.32380 -45.65965 -71.73456 -5.27454 -83.44332 -18.91983 11.44659 -14.73122 14.43740 5.19363 -4.17431 91.38036 8.97590 67.23636 27.07711 35.54124 93.54743 11.11996 9.90754 13.32023 35.23570 20.92984 -13.63919 -46.09747 3.90434 92.84187 -10.80223 0.00315 0.00066 7.21976 -35.23668 -67.16146 -31.29773 -3.22923 12.43304 53.26933 24.24149 -37.88643 -28.11148 0.00700 0.00203 6.95210 -22.96423 14.05517 
8.63572 91.01928 -43.40900 19.99370 -6.87803 77.14268 -14.30800 15.68188 12.49143 0.00115 0.00083 -0.00900 -5.19553 -2.29518 26.31683 4.30378 5.21441 -7.04720 -72.28602 -60.87360 -43.90926 -69.71934 -2.92308 -82.38920 -18.75130 11.44899 -14.14525 15.03422 4.99398 -6.83919 91.26268 9.16678 67.02581 26.87300 35.86454 94.15706 11.12436 9.97742 13.21742 35.00017 20.48368 -13.07970 -46.39095 4.26133 92.31432 -10.83987 0.00333 0.00087 7.30526 -36.23396 -68.20647 -31.77787 -1.81178 14.48059 52.67236 21.17670 -38.40001 -28.00604 0.00594 0.00264 7.17063 -22.07874 14.47965 
